<svg xmlns="http://www.w3.org/2000/svg" xmlns:xlink="http://www.w3.org/1999/xlink" version="1.1" class="marks" width="728" height="453" viewBox="0 0 728 453"><rect width="728" height="453" fill="#FFFFFF"/><g fill="none" stroke-miterlimit="10" transform="translate(36,50)"><g class="mark-group role-frame root" role="graphics-object" aria-roledescription="group mark container"><g transform="translate(0,0)"><path class="background" aria-hidden="true" d="M0.5,0.5h685v380h-685Z"/><g><g class="mark-group role-axis" aria-hidden="true"><g transform="translate(0.5,0.5)"><path class="background" aria-hidden="true" d="M0,0h0v0h0Z" pointer-events="none"/><g><g class="mark-rule role-axis-grid" pointer-events="none"><line transform="translate(0,380)" x2="685" y2="0" stroke="#DEDDDD" stroke-width="1" opacity="1"/><line transform="translate(0,348)" x2="685" y2="0" stroke="#DEDDDD" stroke-width="1" opacity="1"/><line transform="translate(0,317)" x2="685" y2="0" stroke="#DEDDDD" stroke-width="1" opacity="1"/><line transform="translate(0,285)" x2="685" y2="0" stroke="#DEDDDD" stroke-width="1" opacity="1"/><line transform="translate(0,253)" x2="685" y2="0" stroke="#DEDDDD" stroke-width="1" opacity="1"/><line transform="translate(0,222)" x2="685" y2="0" stroke="#DEDDDD" stroke-width="1" opacity="1"/><line transform="translate(0,190)" x2="685" y2="0" stroke="#DEDDDD" stroke-width="1" opacity="1"/><line transform="translate(0,158)" x2="685" y2="0" stroke="#DEDDDD" stroke-width="1" opacity="1"/><line transform="translate(0,127)" x2="685" y2="0" stroke="#DEDDDD" stroke-width="1" opacity="1"/><line transform="translate(0,95)" x2="685" y2="0" stroke="#DEDDDD" stroke-width="1" opacity="1"/><line transform="translate(0,63)" x2="685" y2="0" stroke="#DEDDDD" stroke-width="1" opacity="1"/><line transform="translate(0,32)" x2="685" y2="0" stroke="#DEDDDD" stroke-width="1" opacity="1"/><line transform="translate(0,0)" x2="685" y2="0" stroke="#DEDDDD" stroke-width="1" opacity="1"/></g></g><path class="foreground" aria-hidden="true" d="" pointer-events="none" display="none"/></g></g><g class="mark-group role-axis" role="graphics-symbol" aria-roledescription="axis" aria-label="X-axis for a time scale with values from Thursday, 31 December 2009, 12:00:00 AM to Monday, 31 December 2029, 12:00:00 AM"><g transform="translate(0.5,380.5)"><path class="background" aria-hidden="true" d="M0,0h0v0h0Z" pointer-events="none"/><g><g class="mark-rule role-axis-tick" pointer-events="none"><line transform="translate(0,0)" x2="0" y2="5" stroke="#000000" stroke-width="1" opacity="1"/><line transform="translate(34,0)" x2="0" y2="5" stroke="#000000" stroke-width="1" opacity="1"/><line transform="translate(69,0)" x2="0" y2="5" stroke="#000000" stroke-width="1" opacity="1"/><line transform="translate(103,0)" x2="0" y2="5" stroke="#000000" stroke-width="1" opacity="1"/><line transform="translate(137,0)" x2="0" y2="5" stroke="#000000" stroke-width="1" opacity="1"/><line transform="translate(171,0)" x2="0" y2="5" stroke="#000000" stroke-width="1" opacity="1"/><line transform="translate(206,0)" x2="0" y2="5" stroke="#000000" stroke-width="1" opacity="1"/><line transform="translate(240,0)" x2="0" y2="5" stroke="#000000" stroke-width="1" opacity="1"/><line transform="translate(274,0)" x2="0" y2="5" stroke="#000000" stroke-width="1" opacity="1"/><line transform="translate(308,0)" x2="0" y2="5" stroke="#000000" stroke-width="1" opacity="1"/><line transform="translate(343,0)" x2="0" y2="5" stroke="#000000" stroke-width="1" opacity="1"/><line transform="translate(377,0)" x2="0" y2="5" stroke="#000000" stroke-width="1" opacity="1"/><line transform="translate(411,0)" x2="0" y2="5" stroke="#000000" stroke-width="1" opacity="1"/><line transform="translate(445,0)" x2="0" y2="5" stroke="#000000" stroke-width="1" opacity="1"/><line transform="translate(480,0)" x2="0" y2="5" stroke="#000000" stroke-width="1" opacity="1"/><line transform="translate(514,0)" x2="0" y2="5" stroke="#000000" stroke-width="1" opacity="1"/><line transform="translate(548,0)" x2="0" y2="5" stroke="#000000" stroke-width="1" opacity="1"/><line transform="translate(582,0)" x2="0" y2="5" stroke="#000000" stroke-width="1" opacity="1"/><line transform="translate(617,0)" x2="0" y2="5" stroke="#000000" stroke-width="1" opacity="1"/><line transform="translate(651,0)" x2="0" y2="5" stroke="#000000" stroke-width="1" opacity="1"/></g><g class="mark-text role-axis-label" pointer-events="none"><text text-anchor="start" transform="translate(0.09377138945927446,16)" font-family="Lato" font-size="12px" fill="#000" opacity="1">2010</text><text text-anchor="middle" transform="translate(34.32032854209446,16)" font-family="Lato" font-size="12px" fill="#000" opacity="0">2011</text><text text-anchor="middle" transform="translate(68.54688569472964,16)" font-family="Lato" font-size="12px" fill="#000" opacity="1">2012</text><text text-anchor="middle" transform="translate(102.86721423682408,16)" font-family="Lato" font-size="12px" fill="#000" opacity="0">2013</text><text text-anchor="middle" transform="translate(137.09377138945928,16)" font-family="Lato" font-size="12px" fill="#000" opacity="1">2014</text><text text-anchor="middle" transform="translate(171.32032854209447,16)" font-family="Lato" font-size="12px" fill="#000" opacity="0">2015</text><text text-anchor="middle" transform="translate(205.54688569472964,16)" font-family="Lato" font-size="12px" fill="#000" opacity="1">2016</text><text text-anchor="middle" transform="translate(239.86721423682408,16)" font-family="Lato" font-size="12px" fill="#000" opacity="0">2017</text><text text-anchor="middle" transform="translate(274.0937713894593,16)" font-family="Lato" font-size="12px" fill="#000" opacity="1">2018</text><text text-anchor="middle" transform="translate(308.32032854209444,16)" font-family="Lato" font-size="12px" fill="#000" opacity="0">2019</text><text text-anchor="middle" transform="translate(342.5468856947296,16)" font-family="Lato" font-size="12px" fill="#000" opacity="1">2020</text><text text-anchor="middle" transform="translate(376.8672142368241,16)" font-family="Lato" font-size="12px" fill="#000" opacity="0">2021</text><text text-anchor="middle" transform="translate(411.0937713894593,16)" font-family="Lato" font-size="12px" fill="#000" opacity="1">2022</text><text text-anchor="middle" transform="translate(445.32032854209444,16)" font-family="Lato" font-size="12px" fill="#000" opacity="0">2023</text><text text-anchor="middle" transform="translate(479.54688569472967,16)" font-family="Lato" font-size="12px" fill="#000" opacity="1">2024</text><text text-anchor="middle" transform="translate(513.8672142368241,16)" font-family="Lato" font-size="12px" fill="#000" opacity="0">2025</text><text text-anchor="middle" transform="translate(548.0937713894592,16)" font-family="Lato" font-size="12px" fill="#000" opacity="1">2026</text><text text-anchor="middle" transform="translate(582.3203285420944,16)" font-family="Lato" font-size="12px" fill="#000" opacity="0">2027</text><text text-anchor="middle" transform="translate(616.5468856947297,16)" font-family="Lato" font-size="12px" fill="#000" opacity="1">2028</text><text text-anchor="middle" transform="translate(650.8672142368241,16)" font-family="Lato" font-size="12px" fill="#000" opacity="0">2029</text></g><g class="mark-rule role-axis-domain" pointer-events="none"><line transform="translate(0,0)" x2="685" y2="0" stroke="#000000" stroke-width="1" opacity="1"/></g></g><path class="foreground" aria-hidden="true" d="" pointer-events="none" display="none"/></g></g><g class="mark-group role-axis" role="graphics-symbol" aria-roledescription="axis" aria-label="Y-axis titled 'Y Axis Title (units)' for a linear scale with values from 0 to 6"><g transform="translate(0.5,0.5)"><path class="background" aria-hidden="true" d="M0,0h0v0h0Z" pointer-events="none"/><g><g class="mark-text role-axis-label" pointer-events="none"><text text-anchor="end" transform="translate(-8,384)" font-family="Lato" font-size="12px" fill="#000" opacity="1">0.0</text><text text-anchor="end" transform="translate(-8,352.3333333333333)" font-family="Lato" font-size="12px" fill="#000" opacity="1">0.5</text><text text-anchor="end" transform="translate(-8,320.6666666666667)" font-family="Lato" font-size="12px" fill="#000" opacity="1">1.0</text><text text-anchor="end" transform="translate(-8,289)" font-family="Lato" font-size="12px" fill="#000" opacity="1">1.5</text><text text-anchor="end" transform="translate(-8,257.33333333333337)" font-family="Lato" font-size="12px" fill="#000" opacity="1">2.0</text><text text-anchor="end" transform="translate(-8,225.66666666666663)" font-family="Lato" font-size="12px" fill="#000" opacity="1">2.5</text><text text-anchor="end" transform="translate(-8,194)" font-family="Lato" font-size="12px" fill="#000" opacity="1">3.0</text><text text-anchor="end" transform="translate(-8,162.33333333333331)" font-family="Lato" font-size="12px" fill="#000" opacity="1">3.5</text><text text-anchor="end" transform="translate(-8,130.66666666666669)" font-family="Lato" font-size="12px" fill="#000" opacity="1">4.0</text><text text-anchor="end" transform="translate(-8,99)" font-family="Lato" font-size="12px" fill="#000" opacity="1">4.5</text><text text-anchor="end" transform="translate(-8,67.33333333333331)" font-family="Lato" font-size="12px" fill="#000" opacity="1">5.0</text><text text-anchor="end" transform="translate(-8,35.666666666666686)" font-family="Lato" font-size="12px" fill="#000" opacity="1">5.5</text><text text-anchor="end" transform="translate(-8,4)" font-family="Lato" font-size="12px" fill="#000" opacity="1">6.0</text></g><g class="mark-text role-axis-title" pointer-events="none"><text text-anchor="middle" transform="translate(18,-13)" font-family="Lato" font-size="12px" font-weight="bold" fill="#000" opacity="1">Y Axis Title (units)</text></g></g><path class="foreground" aria-hidden="true" d="" pointer-events="none" display="none"/></g></g><g class="mark-group role-scope pathgroup" role="graphics-object" aria-roledescription="group mark container"><g transform="translate(0,0)"><path class="background" aria-hidden="true" d="M0,0h685v380h-685Z"/><g><g class="mark-line role-mark marks" role="graphics-object" aria-roledescription="line mark container"><path aria-label="variable: A; index: Dec 31, 2009; value: 4.83586714266" role="graphics-symbol" aria-roledescription="line mark" d="M0,73.72841429794724L34.22655715263518,108.18296009393586L68.45311430527036,237.43516928023166L102.77344284736482,266.6372155928615L137,281.8314957071341L171.2265571526352,327.62254293382887L205.45311430527036,301.7968179385521L239.77344284736483,303.1599841638495L274,352.38480079676475L308.2265571526352,227.66430874135347L342.4531143052704,156.99347607342145L376.77344284736483,188.77170995198762L411,256.37504362085934L445.2265571526352,290.99018215494L479.45311430527033,375.9036911422837L513.7734428473648,301.93701414104316L548,221.2812851828365L582.2265571526352,201.97800688147515L616.4531143052704,309.22321511630344L650.7734428473649,338.89138296123497L685,317.51645030052964" stroke="#1696d2" stroke-width="2"/></g></g><path class="foreground" aria-hidden="true" d="" display="none"/></g><g transform="translate(0,0)"><path class="background" aria-hidden="true" d="M0,0h685v380h-685Z"/><g><g class="mark-line role-mark marks" role="graphics-object" aria-roledescription="line mark container"><path aria-label="variable: B; index: Dec 31, 2009; value: 2.80477283885" role="graphics-symbol" aria-roledescription="line mark" d="M0,202.36438687311505L34.22655715263518,224.76227599897246L68.45311430527036,323.9964826973784L102.77344284736482,327.7641486415616L137,305.8385637409977L171.2265571526352,263.00363385169294L205.45311430527036,256.09220023321626L239.77344284736483,197.0888673925945L274,224.47773810362688L308.2265571526352,261.99854196281706L342.4531143052704,112.75873317925576L376.77344284736483,117.60231817223855L411,272.5230984025322L445.2265571526352,358.9133245795752L479.45311430527033,309.37111335995695L513.7734428473648,274.5622098716273L548,328.03777949274627L582.2265571526352,293.3581284394474L616.4531143052704,365.6729178902073L650.7734428473649,343.8162878761849L685,343.9969783335558" stroke="#d2d2d2" stroke-width="2"/></g></g><path class="foreground" aria-hidden="true" d="" display="none"/></g><g transform="translate(0,0)"><path class="background" aria-hidden="true" d="M0,0h685v380h-685Z"/><g><g class="mark-line role-mark marks" role="graphics-object" aria-roledescription="line mark container"><path aria-label="variable: C; index: Dec 31, 2009; value: 2.57348491238" role="graphics-symbol" aria-roledescription="line mark" d="M0,217.01262221595056L34.22655715263518,205.8916043551399L68.45311430527036,158.86642910606102L102.77344284736482,226.1048719349531L137,77.80025019691328L171.2265571526352,41.80526141610997L205.45311430527036,12.92130096344857L239.77344284736483,30.447364234996385L274,171.28969458488595L308.2265571526352,233.99653181340227L342.4531143052704,346.8210344524133L376.77344284736483,293.3787822118688L411,355.80289907663644L445.2265571526352,273.7725349768131L479.45311430527033,281.8411554837321L513.7734428473648,276.86003409451405L548,363.8881275731254L582.2265571526352,332.92705449193306L616.4531143052704,177.1558408668589L650.7734428473649,38.76885827756471L685,22.471566270373117" stroke="#000000" stroke-width="2"/></g></g><path class="foreground" aria-hidden="true" d="" display="none"/></g><g transform="translate(0,0)"><path class="background" aria-hidden="true" d="M0,0h685v380h-685Z"/><g><g class="mark-line role-mark marks" role="graphics-object" aria-roledescription="line mark container"><path aria-label="variable: D; index: Dec 31, 2009; value: 2.27758631238" role="graphics-symbol" aria-roledescription="line mark" d="M0,235.7528668828498L34.22655715263518,230.05611665136715L68.45311430527036,305.95600765678057L102.77344284736482,309.1180391269272L137,349.7537512647811L171.2265571526352,214.63442226051023L205.45311430527036,188.35949752165962L239.77344284736483,239.82851599983533L274,242.76320465796036L308.2265571526352,262.3770757488928L342.4531143052704,266.7093453416993L376.77344284736483,169.65998400115618L411,336.1255807935957L445.2265571526352,364.5264722617423L479.45311430527033,244.04696825501685L513.7734428473648,273.85237692917235L548,253.8183225980516L582.2265571526352,328.262764344594L616.4531143052704,275.6295773037272L650.7734428473649,242.9051805079717L685,358.48778451470656" stroke="#fdbf11" stroke-width="2"/></g></g><path class="foreground" aria-hidden="true" d="" display="none"/></g></g><g class="mark-group role-legend" role="graphics-symbol" aria-roledescription="legend" aria-label="Symbol legend for stroke color with 4 values: A, B, C, D"><g transform="translate(0,0)"><path class="background" aria-hidden="true" d="M0,0h25v61h-25Z" pointer-events="none"/><g><g class="mark-group role-legend-entry"><g transform="translate(0,0)"><path class="background" aria-hidden="true" d="M0,0h0v0h0Z" pointer-events="none"/><g><g class="mark-group role-scope" role="graphics-object" aria-roledescription="group mark container"><g transform="translate(0,0)"><path class="background" aria-hidden="true" d="M0,0h24.666015625v12.5h-24.666015625Z" pointer-events="none" opacity="1"/><g><g class="mark-symbol role-legend-symbol" pointer-events="none"><path transform="translate(6,6)" d="M-5,-5h10v10h-10Z" stroke="#1696d2" stroke-width="1.5" opacity="1"/></g><g class="mark-text role-legend-label" pointer-events="none"><text text-anchor="start" transform="translate(16,10)" font-family="Lato" font-size="12px" fill="#000" opacity="1">A</text></g></g><path class="foreground" aria-hidden="true" d="" pointer-events="none" display="none"/></g><g transform="translate(0,16)"><path class="background" aria-hidden="true" d="M0,0h24.666015625v12.5h-24.666015625Z" pointer-events="none" opacity="1"/><g><g class="mark-symbol role-legend-symbol" pointer-events="none"><path transform="translate(6,6)" d="M-5,-5h10v10h-10Z" stroke="#d2d2d2" stroke-width="1.5" opacity="1"/></g><g class="mark-text role-legend-label" pointer-events="none"><text text-anchor="start" transform="translate(16,10)" font-family="Lato" font-size="12px" fill="#000" opacity="1">B</text></g></g><path class="foreground" aria-hidden="true" d="" pointer-events="none" display="none"/></g><g transform="translate(0,32)"><path class="background" aria-hidden="true" d="M0,0h24.666015625v12.5h-24.666015625Z" pointer-events="none" opacity="1"/><g><g class="mark-symbol role-legend-symbol" pointer-events="none"><path transform="translate(6,6)" d="M-5,-5h10v10h-10Z" stroke="#000000" stroke-width="1.5" opacity="1"/></g><g class="mark-text role-legend-label" pointer-events="none"><text text-anchor="start" transform="translate(16,10)" font-family="Lato" font-size="12px" fill="#000" opacity="1">C</text></g></g><path class="foreground" aria-hidden="true" d="" pointer-events="none" display="none"/></g><g transform="translate(0,48)"><path class="background" aria-hidden="true" d="M0,0h24.666015625v12.5h-24.666015625Z" pointer-events="none" opacity="1"/><g><g class="mark-symbol role-legend-symbol" pointer-events="none"><path transform="translate(6,6)" d="M-5,-5h10v10h-10Z" stroke="#fdbf11" stroke-width="1.5" opacity="1"/></g><g class="mark-text role-legend-label" pointer-events="none"><text text-anchor="start" transform="translate(16,10)" font-family="Lato" font-size="12px" fill="#000" opacity="1">D</text></g></g><path class="foreground" aria-hidden="true" d="" pointer-events="none" display="none"/></g></g></g><path class="foreground" aria-hidden="true" d="" pointer-events="none" display="none"/></g></g></g><path class="foreground" aria-hidden="true" d="" pointer-events="none" display="none"/></g></g><g class="mark-group role-title"><g transform="translate(-30.7294921875,-45)"><path class="background" aria-hidden="true" d="M0,0h0v0h0Z" pointer-events="none"/><g><g class="mark-text role-title-text" role="graphics-symbol" aria-roledescription="title" aria-label="Title text 'Line Chart Example Title'" pointer-events="none"><text text-anchor="start" transform="translate(0,14)" font-family="Lato" font-size="18px" font-weight="bold" fill="#000" opacity="1">Line Chart Example Title</text></g></g><path class="foreground" aria-hidden="true" d="" pointer-events="none" display="none"/></g></g></g><path class="foreground" aria-hidden="true" d="" display="none"/></g></g></g></svg>